<?xml version="1.0" encoding="UTF-8"?>
<svg id="_レイヤー_1" data-name="レイヤー 1" xmlns="http://www.w3.org/2000/svg" xmlns:xlink="http://www.w3.org/1999/xlink" viewBox="0 0 697.32 357.17">
  <defs>
    <style>
      .cls-1 {
        fill: none;
      }

      .cls-2 {
        clip-path: url(#clippath-1);
      }

      .cls-3 {
        fill: #fff;
      }

      .cls-4 {
        clip-path: url(#clippath);
      }
    </style>
    <clipPath id="clippath">
      <rect class="cls-1" width="697.32" height="357.17"/>
    </clipPath>
    <clipPath id="clippath-1">
      <rect class="cls-1" width="697.32" height="357.17"/>
    </clipPath>
  </defs>
  <g class="cls-4">
    <g class="cls-2">
      <path class="cls-3" d="M175.45,115.83c.01-.31-.09-.47-.02-.86.03-.17-.28-.33-.02-.61,0-.41-.05-.45,0-.89-.09-.39.02-.75.02-1.2-.19-.5-.02-1.11,0-1.47-.02-.23.06-.42.31-.42.25-.01.26.06.31.44-.12.19-.03.64-.05.9-.05.3-.2.4-.05.67,0,.23.02.25-.06.48-.02.08-.02.23.03.36.12.19-.12.31-.03.45.01.16.01.31-.06.42-.01.12-.06.55-.05.67-.03.26.05.39.16.51.05.22.23.5.3.69-.03.19.06.34.16.65-.03.26.14.37.09.69-.06.23.09.37.03.7-.11.17.06.44-.03.61-.11.22-.03.51-.14.84-.14.2-.2.34-.51.42-.23,0-.33-.06-.34-.33v-.44c-.09-.33-.11-.51-.02-.78-.02-.23-.05-.42-.02-.65-.06-.2.06-.34,0-.65v-1.22ZM171.57,114.19c.09.02.28-.03.38.03.12-.03.2.14.17.36-.03.12.02.31-.03.47.02.2-.14.19-.14.01,0-.23.01-.53.01-.58s0-.14-.06-.14c-.05,0-.06.05-.08.09-.05.17-.22.54-.33.48-.11-.02-.03-.06-.05-.34-.02-.19.01-.34.12-.39M172.1,116.09c.01.23.03.42-.05.5-.12.09-.34.06-.56.02-.36-.05-.58.09-.87,0-.23.01-.51.05-.79-.02-.14-.03-.39.08-.69,0-.28.02-.31-.14-.08-.37.14-.03.42-.37.55-.55.14-.12.26-.37.28-.54.11-.12.16-.33.16-.56.01-.2.05-.36.19-.3.17,0,.14.12.16.33-.02.33-.03.48,0,.76-.08.36.09.51.2.56.14.11.37.14.7.11.16.02.42.02.51-.05.22-.12.33-.06.3.11M172.13,117.62c-.02.19-.17.2-.37.22-.31-.02-.38,0-.7,0-.17.09-.51.06-.64,0-.23-.02-.48,0-.64,0-.2,0-.51-.05-.64,0-.3.01-.39-.03-.42-.25.05-.14-.05-.14,0-.4.03-.16.17-.23.34-.17.28-.05.55-.08.72-.01.28-.05.58-.08.76-.05.19-.2.2.01.51.05.25-.03.4.06.7-.05.22,0,.36.09.37.26,0,.11-.02.23,0,.4M168.71,114.55c.02-.17.03-.34.25-.31.12-.05.14.06.12.28.05.26-.03.81-.06.95-.08.26-.3.42-.3.08.05-.36-.03-.72-.02-1M167.79,113.41c-.14-.05-.42,0-.38.25-.01.37-.09.48-.01.7.09.16-.05.23.01.5.08.11-.11.2-.09.53-.12.05-.37.11-.47.09-.26.11-.39-.11-.37-.39.06-.28.03-.5.03-.81.02-.3.11-.42.28-.5.28-.08.56-.37.75-.44.2-.03.47-.39.59-.48.22-.12.25-.23.37-.23.06.16.09.19.25.17.16-.02.33.01.33.14.01.16.01.42.05.53,0,.2-.03.34-.19.34s-.31-.09-.44-.14c-.16-.17-.55-.2-.72-.26M166.75,112.27c.19.03.3-.03.44.05.2,0,.31.09.23.28-.11.17-.3.5-.56.7-.14.2-.36.31-.37-.02.02-.2.05-.51,0-.73.02-.2.17-.25.26-.28M170.26,112.74c.14-.06.11.11.16.26-.03.12,0,.42-.02.55-.01.17,0,.28-.12.31-.15-.03-.14-.09-.17-.3.02-.2-.03-.44.03-.53,0-.16-.03-.34.12-.3M178.22,118.96c0-.42-.14-.72-.09-1.09.03-.09.02-.33-.11-.51-.2-.12-.05-.28-.19-.48-.23-.12-.05-.26-.23-.45-.05-.22-.12-.25-.3-.44-.02-.12-.14-.34-.37-.44-.06-.05-.2-.31-.44-.41-.11-.14-.25-.16-.25-.34,0-.23.12-.4.26-.61.11-.17.11-.37.26-.56.2-.3.25-.47.37-.83.19-.33.12-.58.33-.84.06-.22.19-.65.36-.86.19-.03.34-.19.36-.4.03-.14-.03-.22-.2-.42-.02-.14-.36-.31-.42-.47-.08-.16-.26-.22-.5-.37-.17-.19-.3-.23-.44-.19-.17,0-.34.2-.48.45-.09.19-.11.31-.31.28-.22.05-.4-.16-.5-.2-.19-.16-.48-.2-.67-.28-.37-.06-.51-.16-.78.01-.19.12-.05.44-.09.72.08.2-.14.37.03.56.08.19-.11.23.02.48,0,.39-.39.36-.59.28-.19-.12-.47-.23-.61-.42-.26-.12-.51-.28-.62-.48-.23-.22-.12-.44.08-.51.25-.02.48.01.51-.33.02-.17-.11-.44-.39-.51-.23-.2-.42-.34-.59-.3-.12-.06-.28.05-.22.19-.09.11-.06.14-.11.22-.08.03,0,.19-.14.17-.09.01-.17.12-.41.03-.09.01-.14-.09-.26,0-.11-.05-.2-.14-.23,0-.16.06-.08.14-.05.22.06.19.19.25.33.25.14-.06.22-.03.48-.06.19.02.27.05.28.22-.01.22.03.34.03.48.05.25.05.39.14.62.06.3-.08.37-.2.26-.17-.09-.37-.11-.45.12-.14.14-.19.33-.33.44-.02.14-.08.15-.26.19-.19-.09-.37.01-.48,0-.3-.02-.47,0-.67,0-.22-.05-.2-.19,0-.45.16-.27.59-.73.64-1.01.08-.08.09-.2.19-.23.11-.09.37-.16.41-.36.08-.06-.02-.25-.25-.34-.14-.14-.44-.2-.53-.33-.22-.14-.4-.23-.61-.26-.11,0-.25-.09-.36-.03-.23.14-.11.26-.19.56-.11.26-.09.33-.14.64.02.14-.19.61-.25.86-.14.25-.3.25-.42.09-.11-.14-.19-.28-.42-.31-.16-.08-.26.19-.37.39-.16.19-.26.17-.26-.12-.02-.19.01-.59-.02-.98.02-.33-.02-.44.12-.47.23-.12.39-.16.34-.34-.02-.08-.12-.31-.28-.31-.25-.03-.45-.17-.65-.2-.34-.05-.5-.09-.73-.09-.23-.05-.64-.11-.56.3-.03.2.06.5.03.79.09.25-.05.3,0,.45.19.31-.11.26,0,.42,0,.22-.08.42,0,.51-.01.22-.06.34-.28.39-.09-.02-.26-.02-.41-.02-.39-.08-.64-.16-.61.09.08.19.12.42.34.36.22-.03.41-.02.69-.06.17.05.23.14.26.42-.05.17-.01.37,0,.67.26.31-.09.44,0,.67.06.22-.06.39.03.67-.08.36.05.53-.02.67.02.25-.02.41-.22.45-.23,0-.31.06-.5.06-.16,0-.16.03-.25.01-.31-.05-.48-.05-.39.42.01.22.12.59.09.87.02.25.05.53.09.83,0,.2.09.3.23.26.28-.02.47-.2.65-.47.19-.16.33-.05.3.14,0,.28-.02.48.03.67.05.17-.06.33,0,.5.2.23-.08.44,0,.65-.05.38-.02.65-.03.98.03.14-.08.19-.14.39-.14.22-.36.17-.59.22-.22,0-.42-.02-.51-.02-.08,0-.19,0-.22.09-.03.09.05.12.14.15.26.09.38.22.62.41.14.12.31.4.23.79-.06.3.19.44.42.47.28-.05.54-.05.84-.17.33-.2.5-.2.67-.55.06-.22.23-.37.2-.5.06-.19.06-.36.08-.61.01-.45-.02-.94,0-1.18-.11-.02,0-.06,0-.23.05-.12-.05-.19-.02-.3.09-.11-.05-.14,0-.26-.11-.3-.08-.38-.01-.65.08-.23.08-.45,0-.72-.05-.16.03-.17,0-.45.06-.03-.17-.17,0-.4.08-.12.01-.17-.02-.5.02-.22.06-.36.22-.47.12-.03.27-.17.42-.3.17-.16.26-.01.28.16-.03.25-.12.5-.03.64.05.17-.05.33-.02.51-.08.3-.03.48-.03.64.05.25-.05.39.01.58-.06.23.14.36.53.33.19.03.81-.05.84-.31.03-.31.06-.36.33-.34.17-.01.19.09.23.25,0,.2-.09.48-.05.72,0,.22-.12.31-.36.34-.2-.01-.54.05-.67,0-.25-.01-.78-.05-1-.06-.26-.02-.4-.12-.45.14.03.25.19.36.34.34.26-.02.51-.02.86-.03.3-.09.61.01.81-.02.17.05.37.05.33.36-.12.28.03.4-.16.55-.16.11.01.23-.28.53-.19.19-.23.33-.33.4-.17.09-.22.26-.44.42-.12.17-.34.23-.62.39-.15.11-.33.03-.44.17-.22.14-.4.09-.59.14-.11.03-.23.06-.23.14s.09.09.2.09c.37,0,.59-.05,1-.11.22-.06.37-.09.62-.19.2-.08.5-.14.69-.19.33-.12.47-.22.73-.37.23-.22.36-.16.44-.3.03-.12.28-.2.37-.36.11-.22.28-.37.37-.51.11-.14.38-.17.55.01.08.17.37.61.4.94.06.34.12.62.28.69.2.19.36.26.58.23.3.08.55-.05.7-.25.25-.11.36-.39.33-.67.03-.33-.11-.44-.26-.75-.09-.2-.45-.31-.65-.44-.26-.09-.36-.17-.56-.16-.22-.08-.51-.08-.58-.17-.28-.05-.47-.11-.4-.28.06-.14.05-.2.14-.28.12-.05.28.02.45-.05.39.03.51.06.84,0,.28-.01.64.05,1.03,0,.12.09.34-.05.34-.22,0-.14-.14-.36-.45-.61-.36-.25-.47-.4-.69-.37-.09-.05-.25.05-.36.26-.22.12-.39.3-.36.37-.05.12-.25.19-.44.19-.2.02-.28-.19-.23-.39.05-.2-.06-.37.12-.56.11-.02.25-.08.26-.22,0-.12.16-.14.31-.16.19-.02.28.08.28.11.08.22.22.17.41.22.12,0,.48.02.65-.09.15-.09.31-.26.34-.48.01-.19-.11-.59-.03-.64.02-.3-.11-.4,0-.61.06-.3-.14-.33-.01-.59.03-.12-.2-.19-.05-.47.05-.19.08-.45,0-.61-.05-.11.09-.22.05-.37.11-.11.23-.17.22-.34.02-.16-.23-.47-.45-.58-.23-.11-.56-.39-.67-.33-.2.01-.25.09-.3.28-.06.12-.23.17-.44.2-.23,0-.3-.11-.31-.3.03-.08,0-.39,0-.61-.03-.14.08-.22.19-.22.12,0,.19.05.3-.08.08-.06.3.16.41.25.17.2.33.34.48.36.11.12.22.17.34.12.11.02.17,0,.17-.16,0-.09.12-.3.08-.42.06-.16.08-.26.11-.39.19-.23.33-.16.31.06-.05.19.16.39,0,.72-.11.14-.08.64,0,.94.06.33-.09.56,0,.67-.01.16-.08.37,0,.67.03.23.03.51,0,.65-.08.23-.05.37,0,.67-.05.31.06.4,0,.65.08.3-.03.34,0,.64-.05.19-.09.5,0,.64.06.17-.01.4,0,.62.02.14-.06.47-.01.73.09.16-.17.36,0,.65.01.2-.06.34,0,.53.05.11-.05.2-.03.56.2.2-.11.34-.05.47,0,.2-.05.5.01.53-.05.42.26.55.65.47.26-.05.69-.02.89-.2.23-.2.26-.31.23-.55.01-.17.01-.33-.02-.54.03-.14.03-.25-.02-.45.02-.08-.11-.38-.01-.51-.02-.14-.02-.31-.02-.53.02-.2.16-.22.33-.11.16.2.25.36.19.67-.05.11-.02.36.14.41.14.17.26.14.47.12.34-.03.48-.17.7-.28.38-.16.38-.41.53-.64.19-.26.23-.55.3-.86.09-.28-.03-.51.08-.87M162.34,115.47c-.25-.25-.34-.48-.55-.65-.23-.19-.39-.48-.65-.53-.2-.08-.4-.26-.62-.23-.26.02-.47.17-.65.58-.14.3-.47.62-.47.76-.11.14-.26.3-.33.34-.09.19-.19.16-.47.17-.4.02-1.36.02-1.84.02s-.72.12-1.11-.02c-.36-.01-.89-.08-1.29,0-.45.02-.67-.12-1.03,0-.36,0-.73-.14-1-.06-.34.11-.75-.03-1.17-.03-.34.05-.92-.05-1.2,0-.16,0-.39-.02-.56-.06-.3.02-.44-.01-.64-.03-.23-.01-.4,0-.64-.05-.19-.03-.3.12-.26.26.08.34.23.58.51.51.22-.03.61-.02.83-.05.23,0,.62-.02.83-.02.19,0,.45-.02.72-.02.33-.17.44.06.83-.03.25-.06.31.11.58.03.39-.17.54.02.86,0,.2-.06.58.03.83-.02.34-.17.25.03.56.02h.9c.28,0,.42.03.76,0,.33-.05.5.09.75,0,.33-.12.51.03.76,0,.44-.19.56.05.76,0,.3,0,.48,0,.69.03.26-.03.37-.17.76-.03.19.03.53.03.83.03.2,0,.39-.2.62-.03.3.02.59.08.89.03.17-.03.47-.03.47-.36.02-.17-.06-.28-.25-.58M146.5,110.11c-.23-.16-.36-.41-.56-.48-.33-.23-.56-.37-.67-.47-.12-.12-.33-.19-.53-.2-.31-.03-.34.06-.5.3-.19.23-.28.34-.45.64-.22.28-.33.44-.45.56-.08.17-.81.11-1.18.08-.48.06-.86-.02-1.2,0-.31.01-.79.09-1.18,0-.45.08-.86-.02-1.2,0-.5.08-.87-.02-1.2,0-.28.05-1.14-.05-1.56,0-.48.19-.44-.02-.78-.02-.45,0-.59,0-.97-.02-.16-.01-.34.02-.7-.03-.14.03-.23-.01-.33-.03-.14-.02-.26-.06-.36.05-.09.12-.06.34.06.42.09.09.14.22.27.19.16-.03.47-.05.75-.06.22-.01.48,0,.7-.03.39-.05.61.06,1,0,.31-.05.53-.01.9-.03.23-.02.45.06.72-.02.25-.01.42,0,.75,0,.4,0,.53.11.48.36-.06.25.03.56.02.83-.09.25.12.39,0,.7,0,.42.08.61,0,1.01-.05.25.2.48-.02.78-.03.25-.12.45,0,.78.12.33-.09.55-.01.83.08.3-.12.56-.02.84.09.25-.02.4-.02.67-.05.23.03.39-.01.67.05.23-.02.51-.05.84.22.31-.03.31.02.58.03.2-.06.45-.06.76,0,.36-.03.52-.01.83.23.22-.06.51.05.7.14.25-.08.25-.08.53,0,.39.06.48.3.56.16.06.61.08.79.06.39-.05.58-.06.92-.19.17-.06.28-.16.39-.31.11-.16.19-.3.16-.56-.03-.23.08-.42-.03-.72-.03-.12.08-.37-.01-.53-.02-.22,0-.73-.02-1-.08-.33.03-.64-.02-1-.06-.3-.09-.62-.01-.9.03-.28-.11-.56-.02-.9-.03-.23,0-.44-.01-.73,0-.14.03-.39-.02-.59-.05-.42.05-.47,0-.78-.02-.14,0-.31-.02-.48-.01-.11.06-.31.19-.37.09-.05.26-.05.5.11.33.22.38.33.62.58.14.31.3.36.5.64.17.31.3.37.39.72.12.3.22.28.26.58.05.28.28.47.4.53.2.11.5.22.7.2.28-.03.34.01.56-.16.23-.09.25-.08.44-.26.19-.17.15-.17.25-.44.03-.19.06-.34.06-.64,0-.4-.05-.48-.2-.78-.14-.26-.2-.34-.51-.59-.22-.17-.33-.28-.62-.33-.36-.05-.44-.31-.67-.3-.36.03-.4-.12-.72-.22-.28-.05-.48-.01-.72-.12-.26-.12-.3,0-.45-.06-.17-.06-.33.02-.5-.01-.17-.05-.22-.22-.34-.31-.09-.06-.17-.22-.11-.48.03-.11-.08-.22.01-.39,0-.23-.17-.19-.03-.48,0-.12.02-.23.14-.42.14-.03.33-.12.31-.33-.01-.14-.05-.23.33-.23.14.02.39-.03.59-.01.31-.12.28-.02.64-.02.33-.03.64.09.83-.02.19-.01.53-.09.73,0,.41.02.47-.05.72,0,.28.08.42.06.72,0,.22.08.39.09.72,0,.22.06.48.02.53-.17.08-.28-.11-.55-.26-.67M126.39,112.77c-.06.22.03.23,0,.4-.03.2-.09.36-.34.39-.33-.03-.73.08-.93-.02-.31.03-.48,0-.78,0-.17,0-.42.05-.75,0h-.89c-.3,0-.39-.06-.37-.3,0-.23.08-.31-.02-.4-.14-.2,0-.3.02-.51-.06-.16.05-.3,0-.5-.09-.23.05-.28.02-.44,0-.25-.03-.42.06-.58.16-.19.28-.26.4-.25.2.03.5-.01.75-.01.39.01.61.05.84,0,.28.01.47.03.84,0,.34,0,.38.06.59.01.33,0,.5.08.5.28-.03.14.12.34.03.48-.08.19.12.19,0,.39,0,.2.01.31.03.47.09.16.09.44,0,.58M126.42,115.77c0,.2-.01.42,0,.7,0,.3-.17.26-.39.3-.2.01-.59,0-.95,0-.2,0-.45.01-.79,0-.22.06-.45-.09-.76,0-.23.01-.61,0-.95,0-.17-.05-.36-.03-.34-.37.06-.23,0-.45.02-.69-.17-.17.11-.23.02-.51-.09-.22.09-.47.05-.86,0-.22-.01-.41.36-.41h.89c.26.02.47-.19.62.02.3,0,.56-.02.95-.02.19.06.56.02.83.02.33-.03.44.11.44.28-.03.2.16.3.03.53-.05.2.06.26,0,.5-.08.25.11.28,0,.51M128.79,110.09c-.22-.16-.5-.25-.66-.48-.17-.14-.44-.25-.73-.39-.34-.17-.4-.19-.56-.17-.16-.03-.3.22-.44.33-.16.16-.14.36-.31.47-.17.15-.12.26-.26.31-.25,0-.64.08-.83.06-.33-.03-.55-.02-.9-.03-.36.06-.61-.02-.76-.02-.33.06-.4.02-.54-.19-.19-.19-.39-.2-.62-.31-.26-.16-.42-.03-.58-.14-.33-.12-.56-.14-.69-.16-.14-.05-.31-.08-.51-.09-.16-.02-.3.03-.31.31-.02.3.08.5.03.67-.06.23-.02.53.03.67-.06.39-.01.81.02,1.14.23.31-.09.58,0,.87.09.37.05.5,0,.86.03.25,0,.73,0,.93-.05.34.06.53-.02.92.08.28.08.59,0,.9.08.28-.11.62-.03.92.03.33-.12.7-.06.93.06.41-.09.7-.16.97-.19.5.03.7-.26.92-.11.09-.11.28-.19.44-.16.08-.05.26-.22.41-.25.19-.23.45-.39.59-.22.09-.25.31-.55.47-.11.11-.33.3-.51.44-.28.2-.45.3-.73.44-.16.08-.37.11-.31.26.05.11.3.03.55-.05.14-.05.4-.14.67-.23.17-.06.44-.26.61-.33.2-.05.34-.22.62-.34.16-.05.27-.19.55-.36.25-.16.37-.26.62-.51.26-.25.34-.36.51-.51.08-.09.25-.28.41-.53.17-.17.19-.44.3-.56.11-.16.19-.4.23-.61.01-.17.22-.39.17-.65-.08-.12.06-.25.11-.47,0-.26.09-.39.06-.7.08-.26.22-.34.48-.33h.98c.34-.03.58.01.86,0,.2-.17.23.06.62,0,.3-.02.5.05.81,0,.39.06.48.06.51.3-.05.28.14.56-.02.76.09.42-.06.69.03,1.12.02.47.08.75-.05,1.15,0,.26-.3.58-.53.56-.33.06-.48.06-.75.08-.14-.01-.31-.01-.42-.03-.11.09-.25-.02-.36-.03-.19-.02-.28-.03-.31.09-.03.12.08.12.2.19.19.09.47.3.75.45.14.12.33.25.48.47.17.25.16.45.19.59.05.17.14.25.61.31.42,0,.7-.09,1.01-.12.22-.06.26-.12.53-.26.23-.11.34-.09.44-.33.3-.3.28-.36.41-.7.11-.2.2-.45.11-.81.06-.08-.08-.34.03-.53,0-.39-.14-.56-.06-.87-.06-.28-.06-.78-.03-1.12-.09-.16-.09-.48-.02-.72.08-.3-.12-.42-.02-.72.06-.26-.01-.34-.03-.64-.05-.14-.05-.36,0-.48.09-.27-.05-.45-.05-.75-.16-.25.08-.48-.05-.7-.14-.26.09-.44.03-.64-.09-.31-.06-.58-.03-.92-.01-.34.02-.86-.01-1.2,0-.14.05-.37.17-.5.26-.26.39-.34.41-.64,0-.14-.09-.31-.28-.42"/>
      <path class="cls-3" d="M251.33,192.96c.01.14,0,.36.04.66.05.15-.02.25.08.4.09.2.01.25.11.4.14.12.01.25.15.36.09.07.09.26.21.32.17.2.28.29.54.29.23,0,.42-.05.54-.18.14-.17.2-.16.32-.29.07-.1.17-.12.21-.21.06-.1.15-.15.26-.23.1-.08.11-.1.25-.23.07-.02.1-.09.24-.24,0-.12.16-.15.24-.24.1-.09.14-.17.24-.24.11-.1.14-.17.24-.25.1-.09.02-.19.23-.25.11-.1.25-.28.34-.37.03-.08.07-.11.2-.25.14-.09.07-.26.27-.33.11-.19.16-.34.31-.5.12-.16.16-.25.17-.41.02-.25-.11-.45-.23-.61-.11-.17-.24-.29-.46-.39-.09-.03-.4-.21-.48-.09-.05.08.04.14.1.24.09.18.03.27.02.35-.02.19-.09.29-.16.51-.12.18-.19.24-.22.38l-.26.37c-.09.12-.08.27-.29.37-.14.19-.24.21-.31.35-.06.17-.11.23-.28.31-.02.07-.14.15-.24.25-.09.16-.28.32-.44.45-.23.26-.35.36-.56.33-.18-.02-.31-.14-.38-.35-.11-.16-.16-.5-.25-.66-.06-.19-.02-.49-.09-.69-.01-.19.03-.39.08-.54-.02-.2.15-.37.23-.45.06-.09.24-.33.35-.4.1-.11.2-.18.43-.32.21-.18.29-.19.57-.31.15-.02.37-.21.6-.21.17-.09.44-.08.62-.14.14-.06.39,0,.63-.03.24-.01.36.07.58.03.17-.02.41.11.59.11.2.03.37.17.56.19.17.07.27.17.51.27.09.15.3.25.44.35.08.18.19.21.34.44.09.2.24.28.19.5.07.19.14.4.11.66.03.1-.03.38-.05.45-.07.14-.07.28-.12.43-.08.21-.18.27-.19.41-.05.39-.12.19-.24.37-.02.16-.24.31-.29.35-.16.12-.05.25-.26.32-.19.07-.15.19-.41.32-.05.09-.24.2-.33.28-.09.08-.32.19-.46.31-.12.12-.3.26-.45.29-.11.11-.27.21-.48.25-.17.1-.22.16-.42.24-.14.01-.16.07-.28.08-.19.11-.27.14-.37.17-.17.06-.34.03-.31.19.02.11.32.02.44.01.16-.04.37-.02.45-.08.2-.07.28-.03.48-.11.17-.07.26-.02.42-.1.15-.11.37-.07.5-.18.21-.09.28-.04.55-.2.15.01.33-.1.58-.23l.32-.16c.16-.06.5-.25.65-.39.11-.12.2-.2.39-.28.19-.17.26-.18.41-.35.05-.12.24-.12.26-.29.07-.06.17-.21.26-.37.01-.16.05-.26.18-.36.08-.21.07-.29.12-.52.09-.17-.03-.31.05-.5.07-.21-.01-.43-.09-.73.03-.14-.17-.18-.12-.33.02-.16-.07-.15-.15-.32-.19-.07-.11-.22-.19-.29-.06-.09-.19-.12-.23-.28-.1-.14-.11-.16-.25-.26-.14-.08-.16-.23-.28-.23-.05-.03-.15-.14-.33-.24-.15-.03-.21.01-.31-.16-.14-.12-.31-.16-.41-.22-.15-.04-.2-.14-.37-.14-.27.01-.22-.14-.39-.11-.18.07-.29-.11-.5-.1-.33.03-.47-.09-.7-.02-.2.03-.33-.01-.51.01-.21.02-.32.07-.52.07-.22.08-.4.03-.53.11-.18.11-.27.06-.51.16-.14.07-.33.08-.5.21-.11.09-.38.14-.47.25-.1.12-.31.17-.42.32-.17.1-.24.18-.37.35-.16.14-.16.26-.32.46-.1.24-.25.31-.24.52-.1.19-.15.44-.14.54l-.04.57ZM246,194.64c.03.1.01.17.01.33-.04.25.05.35.01.52.09.17-.08.22-.01.33-.02.16-.12.2-.26.16-.15.01-.26.02-.56.02-.18-.02-.28,0-.28-.16,0-.09-.06-.23,0-.34.03-.29-.02-.62.03-.77-.03-.28.06-.34.23-.36.25.06.41-.04.63.03.08-.01.2.01.19.24M243.67,191.42c-.17-.12-.25-.19-.36-.16-.17-.02-.26-.11-.39-.09-.23-.09-.29-.07-.43-.09-.19-.03-.2.1-.2.19,0,.1-.02.23-.02.3.06.21-.06.21.01.48-.03.29.02.48-.01.68-.01.18,0,.51-.01.67-.04.17-.06.45-.01.68-.02.24-.07.44-.02.57.03.21-.05.34-.01.44.06.14,0,.19-.01.35-.04.08.07.2,0,.29-.08.12.02.18-.01.29.03.15.05.38-.03.57-.05.1.02.08,0,.33,0,.16-.1.32-.02.44,0,.09-.03.11,0,.2.06.26.29.28.45.29.25.03.48-.07.71-.17.16-.14.15-.26.16-.4-.01-.26,0-.45,0-.84-.05-.24-.08-.34,0-.52-.05-.17.01-.29,0-.52-.05-.17.03-.38,0-.52.04-.2-.02-.33,0-.52-.12-.16.01-.29,0-.5-.07-.21-.05-.35,0-.5-.08-.25-.02-.38,0-.75-.02-.16.03-.25-.02-.42-.02-.15.04-.31.06-.4.09-.1.28-.12.44-.1.2-.03.56,0,.76,0,.15-.03.26.08.28.23-.03.24-.01.41,0,.62-.02.25-.08.31-.21.29-.14.06-.28,0-.44.01-.09-.01-.28,0-.48-.02-.17-.02-.28-.06-.31.07-.05.11.07.27.24.26.16-.01.25,0,.46-.04.15.02.31-.03.51.03.12.01.2.07.23.17-.03.15-.03.36,0,.49-.03.17-.07.28-.33.21-.16-.06-.28-.12-.53-.17-.32.01-.16.23-.18.46-.02.19-.02.27-.01.39.07.35-.06.42,0,.62.02.1-.08.28-.01.48.06.23-.04.42-.01.66,0,.26.21.28.35.31.17-.02.61-.11.66-.29.03-.16.1-.21.31-.24.11,0,.51.07.62,0,.09.05.18.11.2.19.04.14.17.2.34.15.16,0,.43-.07.53-.11.23-.12.35-.15.28-.43-.03-.14.01-.26-.02-.33-.11-.2.07-.15,0-.34-.1-.09.03-.19-.05-.29-.08-.11-.01-.26.02-.35.06-.14.23-.14.19-.31-.03-.19-.11-.34-.34-.42-.16-.15-.36-.29-.49-.27-.09.03-.18.04-.21.12-.14.15-.23.1-.24-.06,0-.11-.07-.23-.03-.41.02-.2.09-.23.31-.26.16.03.35-.02.46,0,.19.01.29.03.46,0,.14.06.48.03.42-.15-.03-.18-.11-.24-.26-.44-.15-.09-.32-.26-.42-.25-.24,0-.2.15-.32.32-.01.11.01.14-.09.14-.03.09-.08.03-.08.11-.19.02-.21-.04-.36.01-.15,0-.16-.15-.12-.2-.02-.16-.02-.25,0-.34.03-.12.01-.23.12-.26.08-.07.17-.08.14-.19-.02-.11.09-.16.27-.19.09.02.23.01.4.06.22-.06.38-.01.5-.01.17,0,.27.12.28.28-.03.17.08.52.01.72.02.29-.03.65.01.86.01.15-.08.39.01.56.03.14-.06.42,0,.54-.01.26.02.55.01.8-.07.14.01.29-.01.58-.02.26-.1.37-.17.53-.1.12-.19.15-.36.17-.09.04-.2.02-.46.03-.09.01-.08-.01-.2-.01-.08,0-.17,0-.17.06,0,.05.03.07.1.1.08.05.27.12.49.25.15.16.32.31.31.51-.01.27.24.29.5.26.17-.02.44.02.72-.14.07-.09.27-.08.31-.19.08-.07.2-.17.24-.27.03-.09.15-.37.14-.62.01-.28-.02-.46-.01-.64.02-.19-.15-.17-.01-.38.03-.24-.02-.33-.02-.67-.08-.19.06-.27-.01-.35-.14-.14.07-.33-.02-.44-.15-.18.07-.23,0-.34-.15-.19.04-.17.01-.35-.07-.18.02-.23,0-.36,0-.17-.12-.17-.01-.42.08-.17-.03-.34.02-.51.12-.09.31-.29.29-.43-.03-.09-.02-.17-.17-.31-.18-.14-.16-.19-.33-.26-.15-.04-.26-.16-.41-.27-.09-.03-.22-.12-.31-.11-.15.04-.26.09-.27.17-.14.14-.25.31-.36.34-.21,0-.56-.03-.7.01-.17-.03-.29-.08-.19-.23.1-.05.18-.17.34-.31,0-.09.1-.15.25-.22.12-.08.09-.18.23-.2.14.01.15-.07.24-.15.16.01.33-.16.36-.31-.01-.18-.07-.28-.26-.29-.14-.08-.31-.09-.39-.11-.1-.06-.29-.04-.48-.15-.18-.05-.12-.11.01-.12.17-.01.45,0,.69-.02.25-.01.44.05.77,0,.21-.03.56.07.77,0,.15.03.4-.01.35-.18-.02-.15,0-.19-.15-.31-.09-.15-.17-.25-.31-.35-.16-.11-.19-.27-.36-.28-.15-.1-.21-.17-.32-.14-.08-.05-.24.12-.39.28-.18.15-.17.28-.28.4-.01.11-.12.21-.24.26-.14.07-.35-.01-.46.03-.18.02-.28,0-.49,0-.18.01-.29-.02-.32-.16,0-.17-.07-.36,0-.51.1-.03.33-.11.35-.34,0-.14-.11-.18-.24-.26-.1-.11-.34-.03-.54-.15-.22-.04-.49-.04-.6-.07-.2-.06-.27.03-.42-.01-.15-.01-.09.25-.09.33,0,.11-.02.27.01.33.08.19-.07.2-.01.36.09.14-.01.16,0,.34-.02.15-.11.12-.31.12-.25.01-.43.08-.69.01-.23.03-.33.06-.48,0-.17.02-.22.04-.35,0-.07-.02-.16-.03-.27-.02-.15.02-.15-.04-.25-.02-.1.01-.14.1-.06.16.02.11.1.24.22.19.26,0,.45-.01.61,0,.18-.03.37.01.66-.02.19.03.45.01.77,0,.33-.01.45-.03.78,0,.33.03.69,0,.88,0,.12.02.21.07.19.18-.01.18-.1.33-.11.49-.07.14-.01.41-.12.49-.03.18-.12.36-.18.62-.09.23-.25.32-.38.32-.15,0-.18.02-.34.01-.22-.01-.29-.01-.51,0-.29.02-.35.03-.56,0h-.56ZM244.15,191.28c.1.15.28.02.36.08.2.06.42-.06.53-.23.18-.06.23-.26.22-.54-.01-.16-.06-.32-.2-.5-.12-.12-.34-.26-.46-.34-.25-.08-.48-.17-.6-.2-.14-.02-.26-.07-.45-.07-.1,0-.16-.02-.19.03-.03.06.04.1.1.15.07.06.14.15.23.29.19.07.07.12.12.25.06.23.11.41.08.63.04.23.14.37.27.44M240.12,188.39c.11.24.1.31.12.48.07.18,0,.44.11.57.15.17.15.24.54.23.23.02.49-.03.6-.25.12-.1.23-.35.26-.59.01-.26-.14-.22-.18-.43-.04-.2-.17-.2-.37-.34-.2-.11-.36-.03-.5-.14-.11-.02-.35.01-.5-.03-.06.01-.17,0-.24.01-.07.01-.2.03-.22.08-.01.06.05.06.1.1.16.12.24.17.26.32M239.41,191.93c.01.1-.03.31.15.41.1.1.27.17.42.15.31-.03.48-.15.59-.24.09-.11.24-.29.25-.59,0-.27-.04-.39-.17-.52-.19-.11-.25-.31-.44-.34-.14-.03-.34-.11-.5-.15-.08.01-.23-.04-.36-.06-.11-.01-.2-.03-.24.02-.03.06.07.12.11.19.07.14.12.29.19.45.01.15-.02.37,0,.67M242.09,189.67c.09-.04.04-.19.09-.37,0-.1.02-.2.07-.32,0-.03.03-.12.06-.23.02-.11.09-.24-.03-.26-.08-.01-.11.08-.17.23-.06.14-.06.28-.09.31-.02.1-.11.2-.1.27-.09.1-.03.08-.07.2-.07.06.01.16-.07.19-.01.09-.05.11-.1.29-.11.15-.18.37-.17.45-.03.27-.23.48-.22.61-.14.27-.21.5-.24.67-.14.14-.09.24-.17.45.01.2-.12.38-.18.49-.09.15,0,.24-.1.31-.11.08.01.18-.15.29-.12.15-.15.29-.15.35-.14.18-.11.25-.17.4-.1.08-.16.31-.19.41-.11.14-.23.23-.4.2-.1-.01-.14-.02-.16.02-.03.07.02.1.08.16.14.12.23.26.28.51.1.21.02.43.04.7.02.16-.02.43-.03.63,0,.1-.08.36-.03.47-.07.19.1.44.25.52.09.2.39.22.57.19.19.07.28-.02.36-.07.07-.1.19-.06.29-.2.15-.1.08-.22.18-.3.09-.18.07-.18.08-.36,0-.24-.06-.45-.11-.68-.05-.05-.14-.15-.09-.28-.02-.18-.14-.25-.09-.38-.11-.19-.02-.41-.07-.51-.04-.17-.02-.35.03-.73-.03-.25,0-.54.09-.71.11-.28.01-.43.15-.7.03-.25.11-.48.15-.7.04-.19.02-.24.1-.45.01-.07.03-.32.11-.45.02-.24.14-.5.15-.7,0-.17.17-.45.16-.66.06-.08-.04-.12.06-.26M238.2,192.31c-.18-.18-.25-.35-.4-.48-.17-.14-.28-.35-.48-.39-.15-.06-.29-.19-.45-.17-.19.01-.34.12-.48.42-.1.21-.34.45-.34.55-.08.1-.19.22-.24.25-.07.14-.14.11-.34.12-.29.01-.99.01-1.34.01s-.52.09-.81-.01c-.26-.01-.65-.06-.94,0-.33.01-.49-.09-.75,0-.26,0-.53-.1-.72-.04-.25.08-.54-.02-.85-.02-.25.03-.67-.03-.87,0-.11,0-.28-.01-.41-.04-.21.01-.32-.01-.46-.02-.17-.01-.29,0-.47-.03-.14-.02-.21.09-.19.19.06.25.17.42.38.37.16-.02.44-.01.6-.03.17,0,.45-.01.6-.01.14,0,.33-.01.52-.01.24-.12.32.04.6-.02.18-.04.23.08.42.02.28-.12.4.01.62,0,.15-.05.42.02.6-.01.25-.12.18.02.41.01h.66c.2,0,.31.02.56,0,.24-.03.36.07.54,0,.24-.09.37.02.55,0,.32-.14.41.03.56,0,.22,0,.35,0,.5.02.19-.02.27-.12.55-.02.14.02.39.02.6.02.15,0,.28-.15.45-.02.21.01.43.06.65.02.12-.02.34-.02.34-.26.01-.12-.04-.21-.18-.42"/>
      <path class="cls-3" d="M162.09,145.82c-.23-.16-.36-.4-.56-.48-.33-.23-.56-.38-.67-.47-.12-.12-.33-.19-.53-.2-.31-.03-.34.06-.5.3-.19.23-.28.34-.45.64-.22.28-.33.44-.45.56-.08.17-.81.11-1.19.08-.48.06-.86-.02-1.2,0-.31.02-.79.09-1.18,0-.45.08-.86-.02-1.2,0-.5.08-.87-.02-1.2,0-.28.05-1.14-.05-1.56,0-.48.19-.44-.02-.78-.02-.45,0-.59,0-.97-.01-.16-.02-.34.01-.7-.03-.14.03-.23-.02-.33-.03-.14-.01-.26-.06-.36.05-.09.12-.06.34.06.42.09.09.14.22.27.19.16-.03.47-.05.75-.06.22-.02.48,0,.7-.03.39-.05.61.06,1,0,.31-.05.53-.02.9-.03.23-.01.45.06.72-.01.25-.02.42,0,.75,0,.41,0,.53.11.48.36-.06.25.03.56.02.83-.09.25.12.39,0,.7,0,.42.08.61,0,1.01-.05.25.2.48-.02.78-.03.25-.12.45,0,.78.12.33-.09.54-.01.83.08.3-.12.56-.02.84.09.25-.01.4-.01.67-.05.23.03.39-.02.67.05.23-.02.51-.05.84.22.31-.03.31.02.58.03.2-.06.45-.06.76,0,.36-.03.51-.02.83.23.22-.06.51.05.7.14.25-.08.25-.08.53,0,.39.06.48.3.56.16.06.61.08.79.06.39-.05.58-.06.92-.19.17-.06.28-.16.39-.31.11-.16.19-.3.16-.56-.03-.23.08-.42-.03-.72-.03-.12.08-.38-.01-.53-.02-.22,0-.73-.02-1-.08-.33.03-.64-.01-1-.06-.3-.09-.62-.02-.9.03-.28-.11-.56-.02-.9-.03-.23,0-.44-.01-.73,0-.14.03-.39-.02-.59-.05-.42.05-.47,0-.78-.01-.14,0-.31-.01-.48-.02-.11.06-.31.19-.37.09-.05.26-.05.5.11.33.22.37.33.62.58.14.31.3.36.5.64.17.31.3.38.39.72.12.3.22.28.26.58.05.28.28.47.4.53.2.11.5.22.7.2.28-.03.34.02.56-.16.23-.09.25-.08.44-.26.19-.17.16-.17.25-.44.03-.19.06-.34.06-.64,0-.41-.05-.48-.2-.78-.14-.26-.2-.34-.51-.59-.22-.17-.33-.28-.62-.33-.36-.05-.44-.31-.67-.3-.36.03-.4-.12-.72-.22-.28-.05-.48-.02-.72-.12-.26-.12-.3,0-.45-.06-.17-.06-.33.01-.5-.02-.17-.05-.22-.22-.34-.31-.09-.06-.17-.22-.11-.48.03-.11-.08-.22.01-.39,0-.23-.17-.19-.03-.48,0-.12.02-.23.14-.42.14-.03.33-.12.31-.33-.01-.14-.05-.23.33-.23.14.01.39-.03.59-.02.31-.12.28-.02.64-.02.33-.03.64.09.83-.01.19-.02.53-.09.73,0,.4.01.47-.05.72,0,.28.08.42.06.72,0,.22.08.39.09.72,0,.22.06.48.01.53-.17.08-.28-.11-.54-.26-.67M133.62,152.08c.01.19,0,.5.06.9.06.2-.03.34.11.55.12.28.02.34.16.54.19.17.02.34.2.5.12.09.12.36.3.44.23.28.39.4.75.4.31,0,.58-.06.75-.25.19-.23.28-.22.44-.41.09-.14.23-.17.3-.28.08-.14.2-.2.36-.31.14-.11.16-.14.34-.31.09-.03.14-.12.33-.33,0-.17.22-.2.33-.33.14-.12.19-.23.33-.33.16-.14.19-.23.33-.34.14-.12.03-.26.31-.34.16-.14.34-.39.47-.51.05-.11.09-.15.28-.34.19-.12.09-.36.37-.45.16-.26.22-.47.42-.69.17-.22.22-.34.23-.56.03-.34-.16-.62-.31-.84-.16-.23-.33-.4-.64-.53-.12-.05-.55-.3-.65-.12-.06.11.06.19.14.33.12.25.05.37.03.48-.03.26-.12.4-.22.7-.17.25-.26.33-.3.51l-.36.51c-.12.17-.11.37-.4.51-.19.26-.33.3-.42.48-.08.23-.16.31-.39.42-.03.09-.19.2-.33.34-.12.22-.39.44-.61.62-.31.36-.48.5-.76.45-.25-.03-.42-.19-.53-.48-.16-.22-.22-.69-.34-.9-.08-.26-.03-.67-.12-.95-.01-.27.05-.53.11-.75-.03-.28.2-.51.31-.62.08-.12.33-.45.48-.55.14-.16.28-.25.59-.44.3-.25.4-.26.78-.42.2-.03.51-.3.83-.3.23-.12.61-.11.86-.19.19-.08.53,0,.87-.05.33-.01.5.09.79.05.23-.03.56.16.81.16.28.05.51.23.76.26.23.09.37.23.7.37.12.2.41.34.61.48.11.25.26.3.47.61.12.28.33.39.26.69.09.26.19.54.16.9.05.14-.05.51-.06.62-.09.19-.09.39-.17.59-.11.3-.25.37-.26.56-.06.53-.17.26-.33.51-.03.22-.33.42-.41.48-.22.17-.06.34-.36.44-.26.09-.2.26-.56.44-.06.12-.33.28-.45.39-.12.11-.44.26-.64.42-.17.17-.4.36-.62.4-.16.16-.37.3-.65.34-.23.14-.3.22-.58.33-.19.02-.22.09-.39.11-.26.15-.37.19-.51.23-.23.08-.47.05-.42.26.03.16.44.03.61.02.22-.06.51-.03.62-.11.28-.09.39-.05.65-.16.23-.09.36-.03.58-.14.2-.16.51-.09.69-.25.28-.12.39-.06.75-.28.2.01.45-.14.79-.31l.44-.22c.22-.08.69-.34.89-.53.16-.17.28-.28.53-.39.26-.23.36-.25.56-.48.06-.17.33-.17.36-.4.09-.08.23-.3.36-.51.02-.22.06-.36.25-.5.11-.3.09-.41.17-.72.12-.23-.05-.42.06-.68.09-.28-.02-.59-.12-1,.05-.19-.23-.25-.17-.45.03-.22-.09-.2-.2-.44-.26-.09-.16-.3-.26-.4-.08-.12-.26-.17-.31-.39-.14-.19-.16-.22-.34-.36-.19-.11-.22-.31-.39-.31-.06-.05-.2-.19-.45-.33-.2-.05-.3.02-.42-.22-.19-.17-.42-.22-.56-.3-.2-.06-.28-.19-.51-.19-.37.01-.3-.19-.53-.16-.25.09-.4-.16-.69-.14-.45.05-.64-.12-.97-.03-.28.05-.45-.01-.7.02-.3.03-.44.09-.72.09-.3.11-.55.05-.73.16-.25.16-.37.08-.7.22-.19.09-.45.11-.69.3-.16.12-.51.19-.64.34-.14.17-.42.23-.58.44-.23.14-.33.25-.51.48-.22.19-.22.36-.44.64-.14.33-.34.42-.33.72-.14.26-.2.61-.19.75l-.06.78ZM122.3,152.37c-.03.25-.14.4-.12.64.03.34-.2.36-.17.62.05.39-.2.36-.22.62-.06.22-.28.48-.28.59-.02.28-.28.42-.34.58-.11.17-.14.33-.39.55-.19.26-.33.31-.44.5-.11.25-.41.42-.48.45-.09.11-.23.23-.53.41-.2.14-.3.2-.54.36-.17.11-.31.23-.59.33-.28.11-.47.25-.61.28-.25.17-.48.19-.62.25-.05.01-.19.06-.15.17.03.12.17.09.3.06.09-.03.48-.08.69-.16.16-.09.36-.06.56-.17.23-.06.45-.08.67-.22.19-.06.55-.17.65-.23.16-.08.25-.12.44-.2.12-.03.48-.17.62-.3.19-.05.14-.19.41-.19.22-.14.59-.3.65-.45.17-.17.3-.2.45-.34.11,0,.17-.14.39-.34.14-.09.26-.26.36-.37.17-.11.09-.26.3-.39.22-.14.03-.25.26-.4.17-.11.14-.3.23-.42.09-.22.17-.23.2-.44.08-.26.14-.48.19-.61.19-.39.06-.45.23-.86-.02-.11.12-.33.09-.55.08-.2.06-.48.09-.62.02-.2.17-.2.19.01.01.26.03.48.06.69.02.31,0,.59.12.86-.02.39.17.75.19.98-.03.42.09.64.28.95,0,.4.23.64.36.92.08.19.16.31.23.44.06.19.19.3.25.42l.3.4c.16.14.11.33.33.39.3.08.09.28.37.37.34.11.14.23.41.36.23.25.37.28.58.4.22.14.37.33.65.23.22.06.3-.09.45-.39.11-.22.22-.37.31-.44.25-.11.26-.2.51-.42.11-.11.53-.3.83-.4.2-.08.41-.09.42-.2.02-.16-.16-.17-.48-.3-.11-.05-.47-.14-.58-.23-.09.03-.44-.2-.72-.34-.23-.11-.33.01-.42-.25-.11-.11-.3-.2-.55-.36-.3-.2-.44-.19-.53-.37-.08-.16-.37-.3-.51-.42-.11-.17-.34-.27-.47-.42-.22-.05-.17-.23-.42-.45-.23-.05-.33-.26-.33-.39-.08-.2-.2-.17-.3-.41-.14-.09-.17-.25-.28-.42-.23-.08-.09-.31-.25-.44-.14-.2-.16-.4-.25-.59-.14-.09-.23-.65-.34-.87-.05-.27.03-.38.31-.41.19.02.51.02.84-.01.39.01.5,0,.65,0,.25,0,.37-.05.64,0,.23.01.38-.05.65,0,.3.05.41-.03.64,0,.14.08.39-.02.64,0,.28.01.42.03.64,0,.28-.02.51-.05.45-.33-.05-.17-.05-.3-.16-.39-.05-.22-.26-.17-.36-.4-.08-.14-.41-.22-.44-.36-.09-.15-.3-.09-.34-.25-.16-.22-.42-.3-.67-.33-.22-.03-.38.19-.61.53-.14.36-.36.48-.48.7-.16.16-.19.37-.37.41-.17,0-.55.03-.94-.02-.39.03-.75-.02-1.03,0-.26-.02-.37-.06-.37-.19-.03-.2-.12-.31-.02-.5.06-.2-.06-.31.02-.51.06-.19,0-.44.03-.62-.09-.36.03-.44,0-.79.01-.2,0-.23.14-.39.11-.03.17-.17.22-.3.05-.16.28-.17.47-.16.37.06.67-.03.94,0,.22.05.48,0,.69,0,.23.05.38,0,.7,0,.23.02.37.03.7,0,.19.03.28-.14.42.03.25.02.69.06.98-.03.23-.09.47.09.69,0,.28.02.45-.06.5-.31,0-.14-.06-.51-.38-.65-.17-.19-.47-.44-.62-.47-.2-.11-.26-.22-.48-.36-.23-.05-.44-.23-.56-.19-.12-.05-.31.05-.36.2-.3.2-.33.37-.42.47-.22.16-.17.44-.37.51-.14.26-.17.4-.42.42-.25,0-.69-.03-1.01-.03-.45.09-.72.05-1.18,0-.39.05-.87.08-1.19,0-.47.06-.83,0-1.18,0-.36.05-.78.01-1.18,0-.34,0-.7.01-1.2,0-.42.03-.69.03-1.17,0h-.98c-.34-.02-.62-.03-.75-.03-.23-.01-.26-.01-.5-.03-.23-.06-.33.12-.22.3.09.14.11.25.36.22.26,0,.33,0,.54-.02.3-.01.47-.01.75-.01.33-.02.45,0,.84-.02.39,0,.8.02,1.19-.02.15-.12.22.02.42.03.28-.02.72-.02,1.01,0,.2-.05.31.08.33.22-.02.09.02.48.02.58-.02.25-.02.45.01.7.25.25-.06.33.02.7.05.22-.08.64.03.83-.05.31-.06.4-.25.44-.28.01-.62.05-1.01.03-.23-.02-.39.09-.64-.03-.33-.02-.75,0-.95,0-.37-.02-.45-.02-.8-.02-.11.08-.2,0-.51,0-.17-.03-.38-.03-.47-.03-.3-.05-.4.08-.25.33.08.12.14.25.36.2.22-.02.4-.03.64-.03.23-.02.36,0,.62-.03.36,0,.5.01.81,0,.45-.02.67.03,1.03.01.31-.01.7.05.95-.01.22,0,.42.12.4.34.01.39-.09.64-.06.98l-.09.64Z"/>
      <path class="cls-3" d="M268.59,218.83c-.18-.01-.36.06-.49.09-.17.09-.28.01-.48.14-.2.18-.4.05-.46.17-.17.15-.3.07-.46.2-.2.15-.32.15-.44.23-.14.15-.34.19-.44.25-.12.07-.26.18-.42.25-.11.15-.38.17-.45.28-.09.12-.39.17-.47.28-.18.07-.26.2-.49.28-.09.05-.32.25-.49.26-.17.15-.34.15-.59.16-.12.01-.33-.1-.44-.21-.08-.08-.11-.14-.19-.11-.1.02-.07.06-.09.14,0,.19.03.2.07.35.03.09.12.26.19.32.11.1.15.22.28.25.07.04.23.23.36.24.19.02.19.14.39.17.15-.02.31.09.39.07.25.06.46-.09.61-.23.08-.06.09-.14.23-.27.06-.06.08-.12.22-.26.12-.18.14-.2.26-.31.03-.1.21-.18.28-.27.03-.06.09-.17.31-.27.12-.08.16-.16.31-.25.17-.06.05-.24.33-.26.1-.06.17-.19.35-.26.14-.11.27-.24.36-.25.09-.01.32-.17.39-.23.05-.06.3-.19.4-.21.11.01.23-.12.41-.15.14-.06.22-.06.42-.1.07-.02.2-.14.39-.03.22-.01.36-.01.62.11.19.02.27.2.48.33.16.09.22.29.32.49.07.2.11.43.11.57-.03.28-.01.42-.07.65-.07.14-.08.27-.18.42-.06.17-.1.2-.18.31-.02.27-.11.17-.17.26-.06.15-.16.17-.23.28-.06.18-.16.11-.31.27-.12.15-.14.32-.32.29-.11.1-.22.14-.41.31-.23.15-.37.25-.46.33-.18.16-.36.17-.5.29-.12.12-.4.16-.51.28-.18.09-.19.09-.37.19-.14.04-.19.04-.37.15-.09.14-.17.06-.41.16-.17.06-.18.09-.37.15-.16.02-.23.09-.2.19.02.11.15.07.25.06.1-.01.19-.03.33-.07.2-.05.26-.03.51-.12.18-.06.31-.08.37-.1.12-.15.26-.03.36-.11.11-.1.12.01.23-.06.17-.07.33-.07.55-.15.07-.11.17-.02.35-.12.06-.05.14-.12.35-.12.18-.1.23-.16.35-.15.12-.03.18-.09.35-.16.08,0,.15-.17.34-.18.1-.07.11-.16.32-.21.12-.02.09-.16.31-.21.08,0,.16-.23.28-.24.1-.02.18-.18.25-.26.08-.03.15-.19.23-.28.03-.14.14-.2.17-.31-.01-.15.07-.14.14-.32.15-.27.08-.53.11-.73.05-.25-.07-.34-.06-.51.03-.23-.07-.36-.15-.5-.08-.17-.01-.32-.24-.46-.16-.11-.17-.31-.31-.41-.2-.17-.18-.25-.4-.36-.17-.06-.31-.18-.53-.29-.21-.1-.31.07-.43-.08-.2-.1-.33-.04-.59-.07l-.44.04ZM260.89,217.64c-.15-.15-.18-.28-.32-.33-.14-.06-.18-.17-.37-.27-.04-.03-.18-.11-.29-.11-.09,0-.24.09-.39.32-.15.25-.24.28-.32.43-.1.12-.19.18-.42.19-.18-.05-.45.02-.62,0-.15-.06-.37-.02-.48,0-.2.04-.37,0-.46,0-.15.03-.31.02-.46,0-.16.03-.28.01-.46,0-.09.02-.11.12-.31,0-.23,0-.47.02-.61-.01-.27-.01-.34-.01-.53-.03-.12-.01-.27.03-.17.2.08.14.08.16.24.16.23-.01.32,0,.48-.01.23,0,.32-.02.52-.01.21.01.37-.02.6,0,.26.01.46-.03.76-.02.17,0,.25.07.26.24,0,.15.07.35.01.42-.01.17.02.33.01.56-.05.2-.02.56.01.78.07.29-.08.57.01.78-.01.27-.02.6,0,.78.07.23-.07.53,0,.83-.05.35,0,.49,0,.84.03.29.14.57,0,.7-.01.29-.02.46-.01.69-.01.25-.06.37-.24.52-.2.14-.34.14-.46.11-.2.03-.32.01-.49.01-.1,0-.28-.01-.39-.01-.11,0-.23-.02-.24.05-.01.09.12.1.2.14.17.07.36.11.56.22.09.05.18.18.32.2.07.12.18.16.17.24.05.19.05.27.1.43.01.17.22.18.44.19.27-.01.45-.07.59-.12.17-.08.42-.18.54-.28.09-.07.32-.29.33-.46.11-.16.11-.29.1-.58.01-.1-.02-.33-.03-.51-.07-.16.06-.35,0-.52-.07-.26.06-.43-.02-.78.02-.19-.05-.56-.01-.86-.04-.08-.03-.35,0-.42.01-.18.01-.32-.01-.5.03-.15-.07-.35-.05-.46.06-.17-.04-.33.02-.5.03-.15-.11-.27,0-.59-.01-.14.06-.24-.01-.35-.06-.09.06-.16.01-.25-.08-.15.06-.21-.02-.34-.12-.19.05-.22.04-.35,0-.28-.02-.4.09-.49.09-.04.12-.09.12-.19-.06-.1.06-.11.22-.11.24.02.5-.03.69-.02.26.06.41-.02.58-.01.19.06.34-.01.33-.2-.01-.14-.05-.19-.15-.29M255.82,220.84s-.15.01-.21.03c-.15.05-.33.1-.59.17-.14.04-.33.07-.59.15-.22.07-.31.03-.44.1-.15.02-.25.03-.25-.18-.01-.06.03-.14-.02-.25-.11-.21.05-.28-.01-.48-.07-.22.09-.22.01-.35-.11-.2.05-.29.02-.38,0-.17.09-.23.26-.24.12,0,.51.02.71-.01.24,0,.45.01.61,0,.1.03.23-.03.22-.17-.01-.17-.16-.41-.39-.54-.19-.11-.33-.29-.52-.34-.18-.04-.34.24-.45.42-.16.24-.26.38-.38.38-.14.01-.07-.03-.09-.18,0-.2-.04-.27-.01-.5.07-.19-.05-.42,0-.77.02-.16-.02-.23.08-.34.1-.06.25-.12.25-.32,0-.24-.15-.24-.32-.29-.24-.1-.49-.14-.63-.15-.27-.08-.43-.03-.65-.06-.07-.01-.15.17-.11.29,0,.24-.03.23.02.5.07.22,0,.26.03.52.14.2-.04.24-.02.29.07.15-.05.29.01.48.06.14-.03.2-.02.27-.01.18-.06.24-.24.25h-.59c-.29,0-.51-.01-.71-.01-.18,0-.37-.11-.37.07-.03.1.08.28.25.26.28-.02.42-.03.7-.02.26,0,.51-.02.73-.03.15-.01.24.07.26.26-.08.2.03.51,0,.83-.02.18.01.32.01.45.15.14-.02.28,0,.41.01.15-.02.24-.19.25-.1.04-.19.02-.33.08-.11.01-.19.1-.41.08-.27.1-.43.03-.67.1-.06.01-.28-.04-.26.16.06.15-.01.25.03.43.09.17-.01.17.09.36.02.14.09.4.11.5.06.19.17.27.25.23.09-.01.11.01.34-.15.12-.09.18-.03.32-.17.07-.14.17-.02.25-.12.1-.1.16-.08.26-.14.16-.09.2.03.2.23-.03.18.09.51.01.76-.06.18.02.4,0,.63-.02.3-.06.54-.14.62-.11.11-.31.12-.48.15-.24.02-.41.02-.62.02-.1,0-.23-.05-.23.04,0,.08.06.09.14.11.06.01.19.1.29.11.11.08.21.09.29.19.18.26.21.43.27.59,0,.12.06.35.37.29.15.02.27.02.49-.07.18-.08.37-.14.45-.18.17-.11.34-.17.42-.37.14-.31.11-.48.1-.76-.01-.24.05-.36-.03-.59-.06-.17.06-.24-.01-.56-.03-.18.12-.15.01-.4-.07-.14-.01-.31,0-.49-.03-.15.08-.16,0-.35-.07-.11.01-.23.02-.36-.01-.19.07-.29.24-.41.11,0,.26-.23.5-.34.12,0,.24-.15.33-.22.07-.11.23-.14.32-.21.07-.02.1-.14.32-.23.09-.11.18-.11.29-.18.09-.06.17-.1.09-.17M246.77,218.31c-.01.15.11.21.33.28.34.05.5-.28.43-.53-.06-.08-.04-.25-.15-.33-.08-.1-.25-.27-.34-.29-.18-.06-.27-.17-.49-.22-.24-.02-.37-.12-.42.01-.04.08.18.15.33.37.08.09.15.25.21.37.07.12.04.2.09.33M249.32,221.1c-.11-.22-.14-.34-.32-.49-.08-.16-.2-.31-.43-.4-.21-.11-.24-.25-.45-.29-.26-.02-.46-.24-.66-.23-.17-.01-.51-.08-.69-.08-.23-.02-.34-.03-.34.06,0,.08.27.14.44.24.06.02.24.16.32.2.07.09.24-.01.25.18.08.1.22.22.24.35-.03.11.1.19.08.37.01.26-.15.39-.23.5-.11.14-.27.21-.44.36-.09.06-.28.09-.26.17.02.1.12.03.23.03.12,0,.17-.08.24-.05.14,0,.16-.09.35-.07.06-.02.16-.14.28-.07.21.01.12-.09.28-.01.07.03.29.02.36.1.09.11.19.07.4.08.14-.02.17,0,.33-.12.14-.08.11-.23.14-.33-.05-.15,0-.31-.11-.52M247.28,217.01c.15.04.18.14.34.27.15.08.25.32.26.43.11.19.06.34.35.34.2.03.24-.06.33-.12.14-.14.1-.24.12-.34.01-.2-.11-.28-.16-.42-.03-.11-.24-.12-.39-.24-.15-.09-.26-.08-.49-.14-.22.02-.16-.03-.29-.01-.1,0-.27-.06-.32.06-.01.07.14.14.24.17M245.22,220.75c-.03-.18-.28-.47-.4-.5-.24-.07-.18-.17-.48-.18-.1.01-.18,0-.32-.02-.1-.02-.14-.14-.08-.23.02-.16.07-.11.11-.28.02-.11.15-.08.15-.28.02-.08.05-.14.16-.26.03-.16.12-.17.12-.36-.01-.08.01-.27-.12-.31-.08-.12-.23-.14-.27-.27-.26-.19-.38-.2-.58-.27-.12-.03-.39.02-.6.1-.19.03-.28.1-.25.18.04.11.16.01.32.1.23.04.37.22.37.38-.04.18.05.23-.02.42-.07.18-.07.28-.11.42.06.17-.08.21-.14.41-.01.1-.06.21-.11.31-.07.09-.29.07-.5.2-.17.11-.37.04-.59.15-.23.09-.34.09-.58.12-.19.07-.42.03-.48.06-.14.06-.43-.1-.65-.15-.19-.03-.19-.17-.32-.08-.11.09.01.31.24.54.17.1.25.26.29.3.17.11.29.03.29.2.19.16.17.17.37.23.08.02.24.02.4-.11.03-.06.15-.02.21-.11.08-.08.18.01.26-.1.07-.08.17-.09.26-.14.09-.08.14-.08.21-.1.09-.06.2.05.15.15-.16.15-.03.23-.17.37-.09.15-.08.32-.2.4-.14.14.01.19-.18.29-.07.07-.04.16-.16.29-.17.23-.18.43-.33.53-.07.16-.08.2-.18.31-.12.09-.11.17-.2.32-.07.1.01.15-.23.33-.14.11-.11.28-.25.34-.19.11-.25.29-.24.45-.09.23-.16.29-.08.51,0,.32.02.45.37.49.29.02.41-.07.59-.31.05-.11.08-.16.19-.33.03-.11.11-.08.1-.27.04-.1.01-.18.1-.23.08-.05.07-.14.11-.23.08-.07-.01-.1.11-.25.08-.1.11-.26.16-.33,0-.1.05-.15.15-.32-.01-.15.08-.2.16-.32.09-.12,0-.31.16-.37.08-.17.18-.35.25-.52.1-.22-.03-.26.14-.36.06-.08-.06-.06.09-.2.08-.1.05-.18.11-.24.07-.12-.06-.17.1-.26.08-.1.03-.18.12-.27.04-.11.07-.15.17-.36.26-.09.49-.25.63-.2.34.03.37.2.4.52-.08.26.03.54-.05.86-.07.28.07.37-.04.54-.09.26-.09.35-.12.52-.06.28-.2.49-.21.61-.11.26-.11.32-.28.42-.2.11-.24.09-.5.14-.1-.01-.21-.01-.37-.06-.11-.04-.28-.08-.39-.12-.23-.11-.27-.21-.34-.15-.06.04.01.15.06.22.06-.02.02.08.14.17.1.1.16.29.24.33.08.06.12.09.16.2.14.07.11.2.19.26.07-.02.06.07.14.2.07.14.22.2.53.2.26,0,.32.02.5-.14.14-.06.24-.23.41-.33.06-.04.2-.17.21-.28.05-.14.14-.17.18-.32,0-.17.07-.19.15-.35.1-.09-.01-.2.1-.37.05-.26.15-.53.14-.77,0-.24-.02-.41.03-.71.02-.15-.03-.47-.03-.69-.1-.18-.03-.46-.18-.67M234.58,222.1c.16.12.17.1.44.16.15,0,.43-.06.59-.22.11-.12.17-.24.18-.48.01-.27-.03-.42-.16-.56-.08-.17-.29-.28-.4-.35-.19-.1-.35-.14-.52-.2-.16-.1-.38-.09-.53-.12-.29-.07-.41.01-.32.12.16.18.29.28.34.45.06.18.17.14.15.44-.01.15.17.14.08.34-.1.23.1.32.15.41M235.58,224.57c.08-.08.26-.31.19-.6,0-.24-.05-.44-.14-.51-.18-.12-.23-.28-.37-.35-.27-.02-.21-.15-.41-.21-.25-.08-.46-.17-.65-.2-.21-.05-.35,0-.26.14.08.1.12.18.2.33.08.15.08.25.17.41.07.31.01.42.06.68-.03.19.04.4.17.41.02.09.26.15.43.15.18,0,.49-.07.6-.23M232.26,225.4c-.05.11.04.16,0,.31-.05.16.03.17-.01.27-.06.11.08.12.01.34-.03.1-.03.2.04.31.07.09.26.16.44.12.11-.02.38-.05.48-.09.16-.07.28-.04.43-.2.12-.11.16-.19.17-.39.01-.12,0-.25-.01-.37-.01-.2-.03-.35-.03-.62.05-.25.03-.54-.03-.79.01-.27.03-.48-.02-.8-.02-.28.02-.53-.01-.82.02-.19,0-.34-.01-.59.02-.26.06-.44-.01-.58-.08-.22.01-.39-.01-.64-.01-.19,0-.41,0-.63,0-.15.01-.26.03-.37-.06-.09.02-.26.24-.27.19.02.31-.07.54,0,.2,0,.57-.01.81,0,.1-.01.36.02.54,0,.23,0,.28.38.23.48-.02.26.18.5,0,.79-.01.32.06.52.01.78-.07.27.04.36,0,.61-.03.19.19.26.03.46-.03.29.14.5-.02.76-.07.18.09.36.02.53-.07.28,0,.43-.01.62,0,.24,0,.36-.05.54-.03.17-.11.24-.27.28-.14.04-.25.02-.34.04-.1.05-.18-.01-.34-.01-.03,0-.16,0-.29-.01-.09-.01-.16-.02-.17.04-.01.1.06.1.17.15.19.07.24.09.48.26.09.07.29.25.32.42.02.14.03.24.1.35.07.08.2.16.45.15.22-.01.36.02.61-.12.12-.08.42-.16.54-.35.19-.12.33-.44.35-.6.02-.14.08-.33.06-.6.01-.12-.17-.26-.01-.42.06-.1-.05-.31-.06-.49.05-.15-.07-.27-.01-.44.07-.34-.18-.31-.02-.78.08-.25-.02-.49-.02-.78.06-.21-.09-.46-.01-.77-.01-.25-.03-.44-.01-.78.02-.15-.05-.29.07-.48.07-.11.23-.16.23-.37,0-.11-.04-.19-.17-.33-.07-.2-.18-.33-.39-.39-.17-.16-.37-.19-.46-.34-.17-.03-.1-.09-.24-.1-.2-.04-.35.01-.49.23-.14.21-.14.29-.25.4-.25.02-.41.03-.54,0-.11-.01-.33.01-.54,0-.19-.01-.54.02-.82,0-.16.01-.31-.12-.27-.28.02-.28-.01-.52.04-.79.03-.08.02-.11.15-.18.08-.04.15-.04.17-.18.02-.12.1-.11.35-.14.24.03.25-.08.44,0,.23.03.5.01.66,0,.19.03.32-.01.51,0,.17.01.28-.05.51,0,.14,0,.35-.06.51,0,.23,0,.36.03.5.01.09-.01.24,0,.48.02.21.01.29-.16.29-.24-.01-.12-.06-.24-.16-.34-.09-.09-.23-.2-.35-.34-.11-.1-.17-.17-.36-.27-.09,0-.12-.09-.41-.14-.23-.03-.29,0-.44.28-.14.17-.33.32-.32.43-.1.14-.09.24-.24.28-.12.03-.28.03-.45.01-.15.03-.32.02-.46,0-.12.02-.37.01-.48,0-.18.09-.23-.03-.46,0-.18.02-.32,0-.48,0-.23.1-.27-.08-.48,0-.15.05-.22-.06-.46,0-.14.03-.33-.06-.48,0-.21.06-.4-.01-.48,0-.15.07-.19-.09-.46,0-.18.06-.27-.1-.48.01-.24.08-.27-.1-.44,0-.17.1-.37-.1-.51-.04-.18.09-.19-.07-.42-.01-.18.05-.4-.02-.52-.01-.12.01-.28,0-.46-.01-.25-.02-.36-.02-.54-.04-.09-.01-.25-.01-.18.17.08.22.22.27.31.26.15-.02.52-.02.75-.03.31-.01.53-.01.83-.01s.6-.02.87,0c.24-.07.31.02.56.01.31,0,.61-.01.84-.01.12.03.25,0,.29.06.05.05.07.08.06.17.05.11-.02.35.04.46.07.31-.05.43-.02.6.02.19-.1.27-.28.28-.29.06-.45-.07-.67.01-.15.06-.41-.06-.58-.02-.21.06-.4-.02-.55-.02-.09.02-.18-.12-.33-.17-.2-.07-.58-.27-.85-.29-.25-.03-.46-.14-.54.1-.04.15.06.2.01.34-.03.1.03.12,0,.21-.06.16.07.15,0,.3-.01.12.07.22,0,.33,0,.16.25.2,0,.45,0,.14.01.34,0,.46-.02.16.17.19,0,.45-.08.19,0,.24,0,.45.05.18-.07.4,0,.62.02.19-.06.5-.01.62.02.24.01.36,0,.63.08.18-.08.35-.02.62,0,.24.06.41-.01.5-.03.27.01.52-.03.61-.01.14,0,.23-.01.34.02.1.03.21,0,.34-.05.15.08.34.14.38.09.08.2.11.41.12.19.01.27-.02.45-.08.21-.07.29-.09.42-.23.08-.09.12-.21.1-.43-.01-.11-.02-.35-.02-.52-.01-.16,0-.4-.03-.53-.03-.18,0-.38-.01-.56-.01-.19.01-.44-.01-.65,0-.23-.03-.36,0-.65.07-.29-.07-.52,0-.75-.05-.18.01-.48.01-.66-.14-.19.12-.37-.01-.58-.07-.14.06-.32.01-.48,0-.25.04-.34,0-.41-.01-.27-.02-.64.25-.65.14.01.43.03.54,0,.11.01.34-.01.55,0,.26-.01.6.01.83,0,.18.06.25.12.27.27.01.33-.04.61.01.85.04.24-.12.36.03.61.08.11-.16.29-.03.51.15.26-.14.52,0,.82.08.1-.01.39-.01.52.02.18.06.43-.01.52-.02.29.01.49-.01.82-.07.23.01.45,0,.63l-.02.27ZM231.73,220.81c-.09-.17-.23-.1-.32-.18-.11-.11-.26-.06-.36-.16-.12-.12-.31-.07-.57-.15-.22-.03-.34-.05-.36.03-.02.07.07.09.15.18.15.19.34.53.33.65.04.18.2.15.06.42.03.15-.01.31.14.5.08.11.17.23.43.18.27.03.42-.03.59-.19.08-.08.18-.08.26-.42.04-.22-.07-.32-.11-.51-.05-.19-.15-.2-.23-.35M231.93,223.57c-.11-.09-.07-.24-.24-.28-.22,0-.03-.21-.32-.24-.2-.02-.21-.17-.37-.16-.09.02-.33-.11-.48-.15-.23-.06-.36-.07-.41,0-.06.09.14.18.24.35.14.21.18.41.23.6.04.28-.01.46.07.63,0,.16.08.25.2.34.1.08.25.11.38.12.2.01.55-.14.61-.27.11-.16.18-.28.19-.49.01-.19-.03-.36-.11-.46"/>
      <path class="cls-3" d="M230.09,253.92c-.16-.09-.16-.2-.12-.35-.05-.12-.09-.24-.09-.35-.12-.24-.08-.54-.08-.72-.03-.19.07-.29.02-.49.01-.16.08-.33.08-.49-.03-.16.06-.31.1-.48,0-.1.1-.31.11-.48.07-.16.05-.49.17-.66.04-.2.23-.66.24-.87.07-.26-.04-.26.12-.43.03-.15.09-.45.19-.66.01-.23.1-.32.17-.58.08-.27.16-.49.07-.51-.12-.03-.17.31-.25.42-.1.14-.08.33-.16.43-.12.09-.16.26-.17.41-.11.2-.07.33-.18.4-.07.17-.16.33-.18.41.01.19-.06.25-.15.35-.09.1.06.18-.16.36-.07.06.03.2-.15.33-.03.15-.16.24-.14.33-.07.15-.09.21-.17.4-.07.14-.06.24-.17.41-.06.17-.01.32-.16.38-.03.14-.1.3-.19.49-.12.16-.2.42-.24.49-.08.12-.28.2-.44.2-.09,0-.28-.02-.28.05,0,.12.08.1.2.2.09.03.14.15.21.23.1.1.18.25.17.33.02.29.18.33.14.6-.04.24.09.27-.03.44-.06.12-.06.32-.09.5-.06.2.15.49.29.54.15.17.33.17.57.18.1-.07.16.02.41-.1.06-.04.23-.03.29-.17.19-.2.22-.43.25-.68.07-.15,0-.31-.09-.56-.16-.06-.04-.25-.12-.31M228.15,249.27c0,.22,0,.45.11.64.15.12.27.18.45.19.27.01.44-.08.68-.26.16-.12.26-.34.26-.6-.02-.25-.09-.35-.2-.5-.07-.09-.25-.35-.45-.36-.29-.02-.33-.2-.58-.17-.26-.03-.39-.07-.61-.06-.23-.01-.12.09-.01.22.14.19.23.33.27.52.09.15.16.32.08.39M235.37,251.57c-.05.29.06.31-.02.48-.11.28.03.37-.03.48-.1.15-.03.45-.08.69-.02.16-.07.26-.16.29-.12.05-.22-.03-.35-.01-.18.02-.24-.05-.25-.11-.02-.11.01-.23.02-.34-.02-.16.09-.2.03-.37-.01-.19.04-.37.03-.49-.03-.15.1-.56.06-.76.02-.12.03-.2.14-.2.16-.07.26.07.43,0,.12,0,.14.03.19.09-.04.07,0,.17-.01.26M233.48,251.81c-.01.24.07.33-.02.42-.06.16-.01.39-.05.5.01.12-.03.27-.06.5-.02.19-.1.22-.17.25-.12.06-.23.02-.39.02-.12.04-.28,0-.22-.15.02-.06-.05-.21,0-.32.08-.17.03-.24.07-.41.08-.16-.06-.25.03-.34.06-.12-.01-.17.03-.33.08-.1-.02-.21.03-.41.08-.01-.06-.27.08-.29.14-.02.24-.01.43-.01.15.02.26.02.25.16,0,.1-.02.31-.04.41M233.64,249.7c.07.1-.02.15-.02.22.01.15-.06.24-.03.35.09.11-.01.14.01.24.07.08-.04.08-.03.23-.01.12,0,.23-.11.25-.11.05-.26,0-.41,0-.26.01-.28-.08-.21-.2.06-.14-.02-.27.03-.42.08-.26,0-.4.07-.81.01-.23.04-.3.08-.5-.02-.2.08-.24.18-.26.12-.03.19,0,.35,0,.1.02.1.04.14.14.02.18-.01.28-.02.37-.01.14-.08.27-.01.4M235.45,249.43c.07.15-.08.45-.01.59.06.18-.09.34-.02.59.03.19-.12.4-.18.34-.1-.04-.23.06-.41,0-.15,0-.12-.22-.14-.29-.02-.24.07-.43.06-.72,0-.23.08-.34.03-.51,0-.2.04-.34.04-.5.06-.12.11-.11.19-.14.09-.03.16-.02.35.01.11.03.02.09.08.24.07.18-.07.18,0,.39M238.39,250.8c-.11-.1-.1-.2-.24-.28-.19-.15-.34-.32-.57-.35-.15-.06-.23.09-.36.26-.11.16-.24.3-.36.49-.09.03-.15-.08-.11-.29.01-.18-.02-.34.01-.59,0-.17-.06-.29.02-.47-.01-.19-.09-.32.04-.42.1-.07.28-.22.27-.36,0-.15-.08-.23-.19-.34-.17-.07-.28-.14-.35-.22-.08-.02-.26-.18-.32-.19-.15-.03-.17-.11-.35-.11-.28.01-.25.18-.36.32-.12.04-.12.21-.24.25-.19.07-.35.07-.56.04-.19-.02-.27.06-.53,0-.18-.04-.39,0-.53-.01-.14-.01-.31.02-.48-.06-.15,0-.12-.12-.32-.15-.08-.01-.18-.09-.25-.1-.15-.06-.24-.24-.11-.33.07-.07.07-.12.18-.28.12-.17.18-.24.32-.26h.6c.24-.05.4.01.52,0,.16-.01.4,0,.66-.02.25-.03.32.07.53.01.26-.07.42.05.75-.01.24-.05.28.08.65,0,.15-.03.34-.01.63,0,.2,0,.37.02.61.02.18,0,.25-.1.26-.23.01-.14-.1-.15-.14-.27-.11-.09-.2-.18-.33-.33-.17-.03-.11-.11-.26-.19-.18-.1-.32-.2-.48-.19-.24.02-.19.18-.34.25-.12.16-.29.29-.33.41-.14.12-.14.25-.24.27-.36.07-.49-.02-.8.01-.37.03-.51,0-.79,0-.19,0-.34.09-.49,0-.09-.06-.18.09-.28.01h-.41c-.28-.01-.25-.11-.19-.25.02-.06.15-.38.25-.4.23-.08.45-.12.38-.36-.03-.16-.12-.19-.28-.32-.2,0-.24-.12-.48-.2-.26-.06-.6-.15-.76-.17-.11-.01-.27-.14-.29.08-.01.31-.11.45-.09.61-.06.32,0,.35-.12.64-.12.28,0,.46-.18.7-.14.2-.09.39-.21.68-.12.16-.06.32-.2.53-.08.15-.07.27-.2.42-.11.19-.23.44-.34.64-.09.14-.16.23-.23.29-.09.09-.08.19.08.1.18-.1.37-.31.56-.44.11-.06.16-.2.32-.29.1-.06.12-.21.24-.25.06-.03.08-.17.17-.09.14.11.06.12.03.31-.07.11,0,.28-.03.4.02.15-.08.44-.07.66-.08.19-.07.41-.08.46-.06.12-.11.2-.26.16-.23-.07-.34.05-.53.01-.21-.03-.33-.03-.57-.06-.14-.03-.27.06-.15.22.03.1.14.16.22.14.22-.03.34-.02.46-.03.24-.07.29,0,.56.01.14.01.21.11.18.24.02.2-.01.35-.03.52,0,.18-.06.31-.06.42,0,.24-.03.45-.09.61-.03.14.02.19-.08.42-.02.07-.03.2-.07.41-.04.09-.03.12-.02.18.03.04-.08.09-.02.26.07.27.2.22.49.23.14.01.31.01.5-.11.18-.07.27-.09.35-.28.11-.08-.01-.06.05-.21.06-.09.03-.14.25-.16.17.01.29-.03.52.01.22-.01.36-.02.63,0,.18.01.7-.04.87,0,.25.01.28.1.24.25-.06.17-.16.33-.22.35-.2.11-.34.22-.52.18-.14.03-.31-.01-.48-.02-.11,0-.31-.03-.57-.06-.16-.01-.18.06-.04.11.12.08.19.12.29.19.17.01.17.15.33.23.19.15.21.27.24.49.03.24.2.32.44.34.1.01.33,0,.49-.03.21-.03.27-.1.44-.16.18-.02.15-.11.33-.2.11-.02.18-.23.26-.29.15-.11.06-.22.19-.32.06-.1.04-.18.14-.36.11-.23.09-.31.14-.47.02-.14.02-.25.23-.24.23,0,.45,0,.6.01.18-.11.23.01.59,0,.14.02.23-.03.26-.17.05-.16-.16-.32-.33-.56-.12-.18-.36-.36-.57-.33-.16.02-.08.11-.23.2-.09.16-.1.2-.19.32-.02.1-.1.19-.17.19-.11,0-.11-.1-.07-.28.03-.12.01-.44.06-.67.05-.14-.09-.2,0-.41.08-.19-.03-.18.05-.39.02-.07-.07-.07,0-.25.01-.15.07-.25.26-.19.19,0,.35-.03.54-.01.21.02.33-.05.54,0,.16.04.36.04.42-.1.02-.06.01-.21-.09-.35M228.85,246.34c.03.21.18.27.16.42.04.09-.05.17.03.21.06.23.01.43.19.48.03.08.23.2.44.19.29-.02.55-.08.65-.28.21-.11.28-.37.26-.61-.03-.25-.1-.47-.24-.56-.28-.07-.19-.24-.41-.35-.17-.12-.46-.14-.59-.19-.26-.05-.48-.01-.6-.02-.24-.01-.34.07-.18.18.2.15.24.35.28.53"/>
    </g>
  </g>
</svg>